{"title":"Space.Truckers.1996.iNTERNAL.DVDRip.XviD-EXViDiNT","uid":7011967,"size":732925433,"categoryP":"video","categoryS":"movies","magnet":"?xt=urn:btih:2ef954a121c176aa557cb5270453143d0d7523f2&amp;dn=Space.Truckers.1996.iNTERNAL.DVDRip.XviD-EXViDiNT&amp;tr=udp%3A%2F%2Ftracker.openbittorrent.com%3A80&amp;tr=udp%3A%2F%2Fopen.demonii.com%3A1337&amp;tr=udp%3A%2F%2Ftracker.coppersurfer.tk%3A6969&amp;tr=udp%3A%2F%2Fexodus.desync.com%3A6969","seeders":1,"leechers":0,"uploader":"TvTeam","files":5,"time":1328500478,"description":". \n &lt;a href=&quot;\nhttp://www.torrenting.com&quot; rel=&quot;nofollow&quot; target=&quot;_NEW&quot;&gt;\nhttp://www.torrenting.com&lt;/a&gt;          :     Once &amp; For all ;)\n\n\n               www . Torrenting . Com \n\n(((((((((((((= Enjoy No RAR releases =))))))))))))))))))))\n\n\n...................................NFO:....................................\n\n.                                                                                                     \n       \n     \n     \n       \n       \n     \n     \n                                         \n                                         \n                EXVID                    \n                                         \n         \n                                         \n         Filled the Archives             \n                                         \n         \n                                         \n                With:                    \n                                         \n         \n                                         \n                                    \n     E240                           \n                                    \n     SP               (C) 2009      \n                                         \n     \n     \n     \n                                                                                  \n                                                                                   \n                 Space.Truckers.1996.iNTERNAL.DVDRip.XviD-EXViDiNT                  \n                                                                                   \n                                                                                  \n     \n                                                                                               \nEXViD aims to iNTERNAL those releases which have been lost in the archives.\nEXViD aims to PRE non-internal releases which have poor sources and are likely skipped by others. &lt;a href=&quot;\nhttp://www.imdb.com/title/tt0120199/&quot; rel=&quot;nofollow&quot; target=&quot;_NEW&quot;&gt;\nhttp://www.imdb.com/title/tt0120199/&lt;/a&gt;\nSubtitles: \nDate: 2012.01\n\nDirector: Stuart Gordon\n\nGenres: Adventure | Comedy | Sci-Fi | Thriller\n\nPlot:\nJohn Canyon is one of the last independent space transport entrepreneurs. Rough times force him\nto carry suspicious cargo to Earth without questions being asked. During the flight the cargo\nturns out to be multitude of unstoppable and deadly killer robots.\n\nCast:\nTim Loane\t...\tTrooper Officer\nIan Beattie\t...\tTrooper\nOlwen Fouere\t...\tBuilding Commander\nShane Rimmer\t...\tE. J. Saggs\nCharles Dance\t...\tNabel / Macanudo\nRoger Gregg\t...\tTank Patrol\nDenis Akiyama\t...\tTech Leader\nSeamus Flavin\t...\tChopper 4\nJason O'Mara\t...\tChopper 3\nDennis Hopper\t...\tJohn Canyon\nSandra Dickinson\t...\tBitchin' Betty\nGeorge Wendt\t...\tKeller\nGraeme Wilkinson\t...\tJackie\nSean Lawlor\t...\tMel\nDebi Mazar\t...\tCindy\n\nStats:\nFormat                                   : AVI\nFormat/Info                              : Audio Video Interleave\nFormat profile                           : OpenDML\nFile size                                : 1.36 GiB\nDuration                                 : 1h 36mn\nOverall bit rate                         : 2 027 Kbps\n\nVideo\nID                                       : 0\nFormat                                   : MPEG-4 Visual\nFormat profile                           : Advanced Simple@L5\nFormat settings, BVOP                    : 2\nFormat settings, QPel                    : No\nFormat settings, GMC                     : No warppoints\nFormat settings, Matrix                  : Default (MPEG)\nCodec ID                                 : XVID\nCodec ID/Hint                            : XviD\nDuration                                 : 1h 36mn\nBit rate                                 : 1 829 Kbps\nWidth                                    : 640 pixels\nHeight                                   : 272 pixels\nDisplay aspect ratio                     : 2.35:1\nFrame rate                               : 23.976 fps\nColor space                              : YUV\nChroma subsampling                       : 4:2:0\nBit depth                                : 8 bits\nScan type                                : Progressive\nCompression mode                         : Lossy\nBits/(Pixel*Frame)                       : 0.438\nStream size                              : 1.23 GiB (90%)\nWriting library                          : XviD 64\n\nAudio\nID                                       : 1\nFormat                                   : AC-3\nFormat/Info                              : Audio Coding 3\nMode extension                           : CM (complete main)\nCodec ID                                 : 2000\nDuration                                 : 1h 36mn\nBit rate mode                            : Constant\nBit rate                                 : 192 Kbps\nChannel(s)                               : 2 channels\nChannel positions                        : Front: L R\nSampling rate                            : 48.0 KHz\nBit depth                                : 16 bits\nCompression mode                         : Lossy\nDelay relative to video                  : 42ms\nStream size                              : 132 MiB (9%)\nAlignment                                : Split accross interleaves\nInterleave, duration                     : 500 ms (11.99 video frames)\nInterleave, preload duration             : 500 ms\n\n\n\nRelease notes:\nEnjoy!\n\nLooking for:\n75TB+ Archives\nDUTCH/FLEMiSH Archives\n                                                                                                    \nGreets: CRBS EPiSODE FiCO FLS iLS KLASSiGER LiPSYNC MADE NODLABS RUNNER SPRiNTER      \n   \n\n                                                                    ASCII DONE BY XX^NFO 2oo9     \n \n\nRLS-Crc: 415243414445:42EECD90","torrent":{"xt":"urn:btih:2ef954a121c176aa557cb5270453143d0d7523f2","amp;dn":"Space.Truckers.1996.iNTERNAL.DVDRip.XviD-EXViDiNT","amp;tr":["udp%3A%2F%2Ftracker.openbittorrent.com%3A80","udp%3A%2F%2Fopen.demonii.com%3A1337","udp%3A%2F%2Ftracker.coppersurfer.tk%3A6969","udp%3A%2F%2Fexodus.desync.com%3A6969"],"infoHash":"2ef954a121c176aa557cb5270453143d0d7523f2","infoHashBuffer":{"type":"Buffer","data":[46,249,84,161,33,193,118,170,85,124,181,39,4,83,20,61,13,117,35,242]},"announce":[],"urlList":[]}}